<?xml version="1.0" encoding="UTF-8"?>
<svg width="757px" height="385px" viewBox="0 0 757 385" version="1.1" xmlns="http://www.w3.org/2000/svg" xmlns:xlink="http://www.w3.org/1999/xlink">
    <title>illustration 2</title>
    <g id="Page-1" stroke="none" stroke-width="1" fill="none" fill-rule="evenodd">
        <g id="illustration" transform="translate(-11.001000, 0.000000)">
            <path d="M592.446,203.964 L581.878,189.772 C580.616786,188.102909 578.651935,187.114203 576.56,187.096 L559.56,187.096 L559.56,177.578 L576.56,177.578 C581.655719,177.587124 586.449631,179.99538 589.499,184.078 L600.067,198.27 L592.446,203.964 Z" id="Path_29341" fill="#9AC4F8" fill-rule="nonzero"></path>
            <path d="M611.482,324.48 C611.47372,357.700363 584.545363,384.62872 551.325,384.637 C550.173,384.637 549.056,384.603 547.938,384.537 L546.414,384.437 C545.669,384.369 544.89,384.302 544.145,384.2 C543.893165,384.202427 543.642281,384.168751 543.4,384.1 C542.248,384 541.165,383.8 540.047,383.592 C539.031,383.423 538.047,383.186 537.032,382.948 C534.716581,382.407216 532.441722,381.705511 530.224,380.848 C529.671263,380.674523 529.128449,380.470885 528.598,380.238 C528.134575,380.07493 527.681994,379.882541 527.243,379.662 C526.599,379.391 525.888,379.086 525.243,378.747 C522.051268,377.234006 519.011447,375.419422 516.165,373.328 C515.691,372.989 515.183,372.651 514.742,372.278 C514.2,371.838 513.59,371.363 513.082,370.923 C511.387783,369.533263 509.77071,368.052059 508.238,366.486 C507.595,365.842 506.951,365.131 506.338,364.42 C505.864,363.912 505.356,363.336 504.915,362.76 C504.407,362.184 503.899,361.507 503.425,360.897 C502.815,360.118 502.206,359.305 501.663,358.492 C494.792622,348.497114 491.13005,336.646428 491.16278,324.518 L491.16278,324.484 C491.197,299.484 505.051,278.147 526.729,269.069 C530.629,267.443 536.552,263.548 536.552,259.28 L536.552,150.784 L538.686,146.415 L566.766,146.415 L566.766,259.209 C566.877049,261.033219 567.647582,262.754834 568.934,264.053 C571.007737,266.258883 573.523979,268.001919 576.318,269.168 C576.759635,269.34353 577.189522,269.547284 577.605,269.778 C579.19674,270.441146 580.736695,271.222322 582.212,272.115 C582.821,272.454 583.465,272.826 584.075,273.233 C584.888,273.741 585.701,274.283 586.475,274.825 C600.803,284.851 609.948,301.177 611.269,319.976 C611.415,321.466 611.482,322.956 611.482,324.48 Z" id="Path_29342" fill="#9AC4F8" fill-rule="nonzero"></path>
            <path d="M566.771,146.415 L566.771,234.448 C565.314,185.3 546.888,164.706 538.555,157.83 C537.81,157.22 537.098,156.678 536.555,156.306 L536.555,150.751 L538.689,146.381 L566.769,146.381 L566.771,146.415 Z" id="Path_29343" fill="#82BAFF" fill-rule="nonzero"></path>
            <path d="M611.313,319.976 C609.958,301.176 600.847,284.817 586.485,274.791 C583.684595,272.845543 580.714587,271.15638 577.611,269.744 C583.516069,278.708089 587.004821,289.045859 587.739,299.755 C587.839,301.245 587.908,302.736 587.908,304.226 C587.945771,324.931722 577.313167,344.196089 559.773661,355.200364 C542.234155,366.204639 520.262616,367.396092 501.636,358.353 C516.518229,380.135042 543.857052,389.677618 569.061327,381.887711 C594.265601,374.097804 611.452453,350.793638 611.449,324.413 C611.482,322.957 611.414,321.467 611.313,319.976 Z" id="Path_29344" fill="#70C8D6" fill-rule="nonzero"></path>
            <path d="M574.290053,149.633 C574.275256,151.797003 573.42591,153.871827 571.919,155.425 C570.54791,156.814332 568.718009,157.657124 566.771,157.796 C566.55764,157.825093 566.342237,157.836465 566.127,157.83 L537.271,157.83 C537.033494,157.835528 536.795895,157.824166 536.56,157.796 C532.316976,157.415131 529.067822,153.856079 529.073991,149.596 C529.088744,147.431997 529.93809,145.357173 531.445,143.804 C532.994637,142.267192 535.088535,141.404618 537.271,141.404 L566.13,141.404 C570.654444,141.426042 574.306055,145.108531 574.290053,149.633 L574.290053,149.633 Z" id="Path_29345" fill="#B6C2CC" fill-rule="nonzero"></path>
            <path d="M566.094,142.079 C570.252514,142.097169 573.614,145.473447 573.614,149.632 C573.596841,151.622642 572.808192,153.529021 571.414,154.95 C570.154334,156.217186 568.486174,156.996701 566.706,157.15 L566.638,157.15 C566.459039,157.180428 566.27736,157.191825 566.096,157.184 L537.238,157.184 C537.022763,157.190465 536.80736,157.179093 536.594,157.15 L536.526,157.15 C532.621632,156.824101 529.625974,153.547872 529.649856,149.63 C529.670637,147.646244 530.445815,145.744768 531.818,144.312 C533.243241,142.898885 535.163069,142.096805 537.17,142.076 L566.094,142.079 Z M566.094,141.401864 L537.238,141.401864 C535.059388,141.389404 532.966359,142.249285 531.425822,143.789822 C529.885285,145.330359 529.025404,147.423388 529.037864,149.602 C529.043157,153.857684 532.286383,157.410242 536.524,157.802 C536.759894,157.830177 536.997494,157.841539 537.235,157.836 L566.094,157.836 C566.308904,157.842437 566.523973,157.831065 566.737,157.802 C568.680443,157.648226 570.505703,156.807735 571.886,155.431 C573.400665,153.882912 574.25135,151.804814 574.257301,149.639 C574.275673,147.462119 573.423831,145.368003 571.890885,143.822287 C570.357939,142.276571 568.270961,141.407386 566.094,141.408 L566.094,141.401864 Z" id="Path_29346" fill="#A4E6F7" fill-rule="nonzero"></path>
            <circle id="Ellipse_438" fill="#70C8D6" fill-rule="nonzero" cx="536.524" cy="300.229" r="4.302"></circle>
            <circle id="Ellipse_439" fill="#70C8D6" fill-rule="nonzero" cx="548.887" cy="315.742" r="7.689"></circle>
            <path d="M603.285,325.396 L603.285,325.633 C603.094785,346.615284 590.31805,365.429284 570.884556,373.343306 C551.451062,381.257328 529.165604,376.721923 514.371,361.842 C506.053423,353.531995 500.850517,342.611685 499.637,330.917 L499.637,330.883 C507.624137,326.039885 516.784228,323.474589 526.125,323.465 C541.943,323.635 556.542,336.336 579.88,333.186 C588.06428,331.924216 595.977007,329.290584 603.285,325.396 L603.285,325.396 Z" id="Path_29347" fill="#B58FEF" fill-rule="nonzero"></path>
            <path d="M603.285,325.395 L603.285,325.632 C603.232062,339.358998 597.727729,352.502629 587.983114,362.170915 C578.238498,371.839202 565.05199,377.240007 551.325,377.185416 C536.825,377.185416 525.21,372.714 515.793,363.23 C527.885,365.296 564.162,363.704 580.624,333.05 C587.569,332.136 594.513,329.866 603.285,325.395 Z" id="Path_29348" fill="#8C6ACC" fill-rule="nonzero"></path>
            <circle id="Ellipse_440" fill="#8C6ACC" fill-rule="nonzero" transform="translate(567.944800, 344.505400) rotate(-36.869898) translate(-567.944800, -344.505400) " cx="567.9448" cy="344.5054" r="7.757"></circle>
            <path d="M623.811,253.485 L614.936,253.485 C614.596324,253.477734 614.317661,253.213783 614.292,252.875 L613.141,240.275 C612.126055,234.669307 608.449838,229.906671 603.284,227.505 C601.104301,226.428753 599.038827,225.135194 597.119,223.644 C591.801,219.512 587.025,208.673 584.79,202.88 C583.921755,200.7338 584.813143,198.278385 586.856,197.189 L587.056,197.089 L597.421,191.433 C599.220433,190.447463 601.453981,190.764564 602.908,192.212 C607.514,196.785 616.931,208.166 620.86,228.184 C626.182,255.043 623.811,253.485 623.811,253.485 Z" id="Path_29349" fill="#82BAFF" fill-rule="nonzero"></path>
            <path d="M623.811,253.487 L622.355,253.487 C623.439,248.101 618.697,227.405 611.482,213.721 C600.982,193.838 594.004,195.938 587.094,197.021 L597.459,191.365 C599.258433,190.379463 601.491981,190.696564 602.946,192.144 C607.553,196.717 616.969,208.098 620.898,228.116 C626.182,255.043 623.811,253.487 623.811,253.487 Z" id="Path_29350" fill="#9AC4F8" fill-rule="nonzero"></path>
            <circle id="Ellipse_441" fill="#8C6ACC" fill-rule="nonzero" cx="515.794" cy="335.963" r="4.302"></circle>
            <path d="M727.037,221.44 L727.037,251.112 C727.031515,252.625192 725.806192,253.850515 724.293,253.856 L704.072,253.856 L704.072,281.936 C704.090952,282.928643 703.572229,283.854102 702.715594,284.355976 C701.858959,284.857849 700.798041,284.857849 699.941406,284.355976 C699.084771,283.854102 698.566048,282.928643 698.585,281.936 L698.585,251.113 C698.590485,249.599808 699.815808,248.374485 701.329,248.369 L721.55,248.369 L721.55,221.475 C721.540329,220.471124 722.088437,219.544771 722.973,219.07 C723.369907,218.824849 723.82749,218.695645 724.294,218.696989 C725.806413,218.703029 727.030971,219.927587 727.037,221.44 Z" id="Path_29351" fill="#9AC4F8" fill-rule="nonzero"></path>
            <path d="M727.038,221.44 L727.038,251.112 C727.032515,252.625192 725.807192,253.850515 724.294,253.856 L704.072,253.856 L704.072,279.7 L701.735,279.7 C701.735,279.7 701.6,252.805 701.735,251.688 C701.904,250.57 722.295,252.332 724.463,249.554 C726.663,246.81 725.039,242.915 725.174,232.313 C725.274,224.624 724.768,220.898 722.974,219.035 C723.370907,218.789849 723.82849,218.660645 724.295,218.661989 C725.809234,218.695934 727.023266,219.925458 727.038,221.44 Z" id="Path_29352" fill="#82BAFF" fill-rule="nonzero"></path>
            <path d="M684.731,231.804 L684.731,281.969 C684.702461,283.46378 683.482552,284.660619 681.9875,284.660619 C680.492448,284.660619 679.272539,283.46378 679.244,281.969 L679.244,238.95 L652.316,268.622 C651.41594,269.620928 649.925075,269.821516 648.793,269.096 C648.661118,269.017015 648.536615,268.926315 648.421,268.825 C647.294534,267.800561 647.205238,266.059297 648.221,264.925 L679.959,229.969 C680.066644,229.838898 680.192233,229.724757 680.332,229.63 C681.160149,229.005983 682.26911,228.901471 683.19926,229.359782 C684.12941,229.818092 684.722223,230.761114 684.732,231.798 L684.731,231.804 Z" id="Path_29353" fill="#9AC4F8" fill-rule="nonzero"></path>
            <path d="M679.211,249.35 L679.211,238.95 L652.283,268.622 C651.382733,269.620537 649.89217,269.821084 648.76,269.096 L679.99,233.971 L679.211,249.35 Z" id="Path_29354" fill="#82BAFF" fill-rule="nonzero"></path>
            <path d="M684.731,231.804 L684.731,281.804 L682.259,281.804 C682.259,281.804 682.936,240.616 682.259,234.891 C682.062122,233.002135 681.385714,231.19494 680.294,229.641 C681.127721,229.018983 682.239152,228.91505 683.173743,229.371708 C684.108334,229.828367 684.709354,230.769034 684.731,231.809 L684.731,231.804 Z" id="Path_29355" fill="#82BAFF" fill-rule="nonzero"></path>
            <path d="M717.283048,285.052 L717.283048,290.81 C717.276941,295.054005 713.838005,298.492941 709.594,298.499008 L678.33,298.499008 C674.075453,298.505087 670.619684,295.064532 670.607,290.81 L670.607,285.052 C670.619684,280.797468 674.075453,277.356913 678.33,277.362952 L709.594,277.362952 C711.63545,277.355793 713.595368,278.163568 715.0389,279.6071 C716.482432,281.050632 717.290207,283.01055 717.283048,285.052 Z" id="Path_29356" fill="#263238" fill-rule="nonzero"></path>
            <path d="M717.283008,285.052 L717.283008,290.81 C717.276941,295.054005 713.838005,298.492941 709.594,298.499008 L678.33,298.499008 C674.075453,298.505087 670.619684,295.064532 670.607,290.81 L670.607,288.236 C691.54,289.964 703.124,282.004 708.002,277.329 L709.594,277.329 C713.848532,277.341684 717.289087,280.797453 717.283008,285.052 Z" id="Path_29357" fill="#414D53" fill-rule="nonzero"></path>
            <path d="M763.382001,371.628 L763.382001,380.807 C763.375959,382.862306 761.711306,384.526959 759.656,384.533 L628.165,384.533 C626.121391,384.51218 624.475086,382.850714 624.473,380.807 L624.473,371.628 C624.473,370.753439 624.772903,369.905307 625.32,369.223 L667.965,318.686 C668.075256,318.537139 668.213088,318.410849 668.371,318.314 C669.036732,317.703814 669.906936,317.365 670.81,317.365 L717.045,317.365 C717.928113,317.376166 718.778598,317.700413 719.445,318.28 C719.615088,318.387512 719.764185,318.525088 719.885,318.686 L762.496,369.223 C763.068428,369.893508 763.382001,370.746379 763.382001,371.628 L763.382001,371.628 Z" id="Path_29358" fill="#9AC4F8" fill-rule="nonzero"></path>
            <rect id="Rectangle_338" fill="#9AC4F8" fill-rule="nonzero" x="668.371" y="307.102" width="51.045" height="19.917"></rect>
            <path d="M763.382,371.628 L763.382,380.807 C763.375959,382.862306 761.711306,384.526959 759.656,384.533 L714.538,384.533 C732.355,370.002 724.429,338.196 716.977,327.018 C716.605,326.442 716.198,325.934 715.859,325.46 C713.285,322.31 709.22,319.6 704.512,317.331 C690.692,310.591 671.69,307.508 671.69,307.508 L671.825,307.068 L719.449,307.068 L719.449,318.246 C719.619501,318.353344 719.768955,318.490937 719.89,318.652 L762.501,369.189 C763.067656,369.875785 763.378965,370.737627 763.382,371.628 Z" id="Path_29359" fill="#82BAFF" fill-rule="nonzero"></path>
            <path d="M720.365,310.015054 L667.457,310.015054 C666.11772,310.017395 664.832604,309.486428 663.885588,308.539412 C662.938572,307.592396 662.407605,306.30728 662.409992,304.968 L662.409992,296.195 C662.407605,294.85572 662.938572,293.570604 663.885588,292.623588 C664.832604,291.676572 666.11772,291.145605 667.457,291.147992 L720.365,291.147992 C721.70428,291.145605 722.989396,291.676572 723.936412,292.623588 C724.883428,293.570604 725.414395,294.85572 725.412324,296.195 L725.412324,304.934 C725.42729,306.280293 724.901567,307.576388 723.952734,308.531613 C723.003901,309.486838 721.711365,310.021251 720.365,310.015054 Z" id="Path_29360" fill="#C7D3DE" fill-rule="nonzero"></path>
            <path d="M754.678,376.505 C754.678,377.962 753.255,379.113 751.46,379.113 L636.329,379.113 C634.601,379.113 633.111,377.961 633.111,376.505 L633.653,370.137 C633.645732,369.491671 633.917277,368.87459 634.398,368.444 L654.586,344.971 C661.902,343.548 669.998,342.905 677.077,344.293 C695.571,348.019 697.57,355.403 710.677,355.64 C715.563513,355.680711 720.428221,354.984211 725.107,353.574 C729.152226,352.348249 733.022733,350.606588 736.623,348.392 L753.356,368.444 C753.836723,368.87459 754.108268,369.491671 754.101,370.137 L754.678,376.505 Z" id="Path_29361" fill="#E8505B" fill-rule="nonzero"></path>
            <path d="M754.677,376.506 C754.677,377.963 753.254,379.114 751.459,379.114 L719.518,379.114 C724.531,371.899 725.852,362.584 725.141,353.575 C729.186207,352.349197 733.056707,350.607539 736.657,348.393 L753.39,368.445 C753.870723,368.87559 754.142268,369.492671 754.135,370.138 L754.677,376.506 Z" id="Path_29362" fill="#F14062" fill-rule="nonzero"></path>
            <circle id="Ellipse_442" fill="#D44C56" fill-rule="nonzero" cx="659.09" cy="358.079" r="5.69"></circle>
            <circle id="Ellipse_443" fill="#D44C56" fill-rule="nonzero" cx="717.283" cy="373.187" r="3.794"></circle>
            <circle id="Ellipse_444" fill="#82BAFF" fill-rule="nonzero" cx="703.361" cy="341.448" r="7.316"></circle>
            <circle id="Ellipse_445" fill="#82BAFF" fill-rule="nonzero" cx="686.154" cy="333.522" r="3.895"></circle>
            <circle id="Ellipse_446" fill="#82BAFF" fill-rule="nonzero" cx="698.89" cy="325.562" r="2.845"></circle>
            <g id="Group_1376" transform="translate(0.000000, 383.574000)" fill="#263238" fill-rule="nonzero">
                <path d="M768.382,0.5 C768.382,0.294 596.432,0.191 384.191,0.191 C171.95,0.191 0,0.291 0,0.5 C0,0.709 171.951,0.809 384.191,0.809 C596.431,0.809 768.382,0.706 768.382,0.5 Z" id="Path_29012"></path>
            </g>
            <path d="M252.803,234.677094 L136.686,234.677094 C134.334645,234.689684 132.162575,233.422171 131.016879,231.368781 C129.871183,229.31539 129.933298,226.801306 131.179,224.807 L179.479,149.562 C180.344925,148.225873 180.806745,146.668186 180.809,145.076 L180.84,121.933 L208.655,121.933 L208.686,145.076 C208.688255,146.668186 209.150075,148.225873 210.016,149.562 L258.316,224.807 C259.545357,226.804749 259.598315,229.311107 258.45444,231.359002 C257.310566,233.406896 255.148703,234.677094 252.803,234.677094 L252.803,234.677094 Z" id="Path_29313" fill="#9AC4F8" fill-rule="nonzero"></path>
            <path d="M182.632,125.398 C182.632,125.398 201.041,123.604 201.258,136.01 C201.475,148.416 206.732,119.458 206.732,119.458 L182.632,120.881 L182.632,125.398 Z" id="Path_29314" fill="#9AC4F8" fill-rule="nonzero"></path>
            <path d="M252.803,234.67702 L208.745,234.67702 C217.532,227.19 217.161,218.31 218.367,209.152 C220.254,194.858 217.567,174.531 201.598,149.531 C200.825,146.221 201.351,127.997 201.505,121.931 L208.59,121.931 L208.621,145.074 C208.623553,146.666286 209.085722,148.223982 209.952,149.56 L258.252,224.805 C259.508125,226.788274 259.58375,229.298434 258.449298,231.353731 C257.314846,233.409027 255.150593,234.682852 252.803,234.67702 L252.803,234.67702 Z" id="Path_29315" fill="#82BAFF" fill-rule="nonzero"></path>
            <path d="M244.821,229.139 L144.082,229.139 C139.565,229.139 138.082,225.859 140.493,222.363 L162.615,187.711 C165.709824,187.018427 168.885726,186.758284 172.052,186.938 C185.944,188.268 189.564,194.797 204.074,193.992 C208.216085,193.79558 212.309596,193.014517 216.233,191.672 C217.099,191.394 217.966,191.084 218.77,190.744 C221.38729,189.660188 223.860683,188.257232 226.134,186.567 L248.441,222.367 C250.792,225.89 249.338,229.139 244.821,229.139 Z" id="Path_29316" fill="#263238" fill-rule="nonzero"></path>
            <path d="M244.82,229.139 L213.571,229.139 C217.315,224.405 219.542,203.739 218.119,190.805 C218.985,190.527 224.462,188.423 226.101,186.566 L248.408,222.366 C250.791,225.89 249.337,229.139 244.82,229.139 Z" id="Path_29317" fill="#263238" fill-rule="nonzero"></path>
            <path d="M208.25,125.398 L181.209,125.398 C177.587479,125.395793 174.652207,122.460521 174.65,118.839 L174.65,118.251 C174.652207,114.629479 177.587479,111.694207 181.209,111.692 L208.25,111.692 C211.87175,111.693655 214.807345,114.62925 214.809,118.251 L214.809,118.839 C214.806793,122.460521 211.871521,125.395793 208.25,125.398 L208.25,125.398 Z" id="Path_29318" fill="#B6C2CC" fill-rule="nonzero"></path>
            <circle id="Ellipse_432" fill="#414D53" fill-rule="nonzero" cx="164.315" cy="214.751" r="4.455"></circle>
            <circle id="Ellipse_433" fill="#82BAFF" fill-rule="nonzero" cx="206.205" cy="175.644" r="4.455"></circle>
            <circle id="Ellipse_434" fill="#414D53" fill-rule="nonzero" cx="214.717" cy="218.898" r="4.858"></circle>
            <circle id="Ellipse_435" fill="#414D53" fill-rule="nonzero" cx="197.978" cy="204.17" r="6.095"></circle>
            <circle id="Ellipse_436" fill="#82BAFF" fill-rule="nonzero" cx="182.722" cy="165.465" r="6.095"></circle>
            <g id="Group_1491" transform="translate(40.310000, 141.301000)" fill="#B6C2CC" fill-rule="nonzero">
                <path d="M1.764,3.52700057 L130.782,3.52700057 C131.249923,3.52726577 131.698758,3.34150156 132.02963,3.01062982 C132.360501,2.67975808 132.546,2.23092351 132.546,1.76300028 C132.535178,0.793451369 131.751555,0.01027224 130.782,0 L1.764,0 C1.29625009,-0.000265030778 0.847567197,0.185361946 0.516724248,0.516017342 C0.185881299,0.846672738 0,1.2952503 0,1.76300028 C0.0102819511,2.73293974 0.794060548,3.51671833 1.764,3.52700057 L1.764,3.52700057 Z" id="Path_29319"></path>
            </g>
            <path d="M15.001,384.052 L116.081,384.052 C116.058935,367.764929 102.852085,354.57195 86.565,354.566984 L44.517,354.566984 C36.6917221,354.558773 29.1841305,357.661587 23.6479138,363.191989 C18.1116972,368.722391 15.001,376.226718 15.001,384.052 Z" id="Path_29320" fill="#C7D3DE" fill-rule="nonzero"></path>
            <g id="Group_1492" transform="translate(61.997998, 68.592677)" fill="#C7D3DE" fill-rule="nonzero">
                <path d="M0,3.40032288 L0,300.733323 C0.0456118262,302.648516 1.61126621,304.177329 3.52700229,304.177329 C5.44273838,304.177329 7.00839276,302.648516 7.05400229,300.733323 L7.05400229,3.40032288 C7.00974722,1.49150125 5.43616331,-0.0254211433 3.52700229,0 C2.59741876,0.00615687718 1.70359017,0.359265535 1.02100229,0.990322884 C1.01269741,0.990041117 1.00464766,0.993216607 0.99877184,0.999092429 C0.992896018,1.00496825 0.989720527,1.013018 0.990002295,1.02132288 C0.355455778,1.65023544 -0.0010435534,2.50691414 0,3.40032288 Z" id="Path_29321"></path>
            </g>
            <rect id="Rectangle_337" fill="#C7D3DE" fill-rule="nonzero" x="55.501" y="66.86" width="20.049" height="8.539"></rect>
            <path d="M62.001,355.34 C64.167,354.814 65.528,354.567 65.528,354.567 L65.528,75.399 C63.393,73.299 62.805,71.346 62.991,69.613 C62.9907182,69.6046951 62.9938937,69.5966454 62.9997695,69.5907695 C63.0056454,69.5848937 63.0136951,69.5817182 63.022,69.582 C63.1116392,68.6041431 63.4526843,67.6660968 64.012,66.859 L55.501,66.859 L55.501,75.398 L62.001,75.398 L62.001,354.536 L44.551,354.536 C28.2415154,354.52937 15.013146,367.742519 15.001,384.052 L44.641,384.052 C22.581,366.943 51.479,357.908 62.001,355.34 Z" id="Path_29322" fill="#B6C2CC" fill-rule="nonzero"></path>
            <path d="M170.936858,142.848 L170.936858,143.281 C170.927873,144.637708 171.462788,145.941494 172.422147,146.900853 C173.381506,147.860212 174.685292,148.395127 176.042,148.386 L213.448,148.386 C214.640268,148.383903 215.792546,147.955834 216.697,147.179 L216.728,147.179 C217.857667,146.196369 218.511314,144.776188 218.523035,143.279 L218.523035,142.846 C218.528048,141.488539 217.993498,140.184701 217.037004,139.221454 C216.080509,138.258208 214.780463,137.7145 213.423,137.709997 L176.042,137.709997 C174.68192,137.708629 173.377633,138.250574 172.419014,139.21539 C171.460395,140.180206 170.926865,141.487957 170.936858,142.848 L170.936858,142.848 Z" id="Path_29323" fill="#C7D3DE" fill-rule="nonzero"></path>
            <path d="M55.5009548,137.774 L55.5009548,147.121 C55.4951537,148.545248 56.0562915,149.913283 57.0605775,150.923198 C58.0648634,151.933112 59.4297413,152.501887 60.854,152.504 L70.201,152.504 C71.6250853,152.501621 72.989706,151.93273 73.9937757,150.922844 C74.9978453,149.912959 75.558846,148.545075 75.5530452,147.121 L75.5530452,137.777 C75.5535305,136.357031 74.9899587,134.995009 73.986264,133.990564 C72.9825693,132.98612 71.6209691,132.42153 70.201,132.421 L60.857,132.421 C59.4368577,132.420469 58.0746845,132.984179 57.0702109,133.98809 C56.0657373,134.992 55.5012651,136.353858 55.5009548,137.774 Z" id="Path_29324" fill="#C7D3DE" fill-rule="nonzero"></path>
            <path d="M33.5339464,136.66 L33.5339464,148.201 C33.5223353,150.556874 35.4171997,152.479006 37.773,152.501 C38.3348772,152.509257 38.8926533,152.404164 39.413,152.192 C39.413,152.192 39.413,152.223 39.444,152.192 C41.0292287,151.511347 42.0614472,149.957132 42.074,148.232 L42.074,136.692 C42.068731,135.558774 41.6120481,134.474374 40.8050238,133.678798 C39.9979995,132.883222 38.9071857,132.442078 37.774,132.452802 C37.1543457,132.457122 36.5427126,132.593495 35.98,132.853 C33.934,134.652 33.5339464,135.608 33.5339464,136.66 Z" id="Path_29325" fill="#C7D3DE" fill-rule="nonzero"></path>
            <path d="M55.5009548,137.774 L55.5009548,147.121 C55.4951537,148.545248 56.0562915,149.913283 57.0605775,150.923198 C58.0648634,151.933112 59.4297413,152.501887 60.854,152.504 L65.526,152.504 C58.719,140.804 65.526,132.424 65.526,132.424 L60.854,132.424 C57.8990193,132.424551 55.5032076,134.81902 55.5009548,137.774 Z" id="Path_29326" fill="#B6C2CC" fill-rule="nonzero"></path>
            <path d="M33.5339464,136.66 L33.5339464,148.2 C33.5223353,150.555874 35.4171997,152.478006 37.773,152.5 C38.3348772,152.508257 38.8926533,152.403164 39.413,152.191 C35.576,149.066 35.607,138.639 35.979,132.823 C33.934,134.648 33.5339464,135.608 33.5339464,136.66 Z" id="Path_29327" fill="#B6C2CC" fill-rule="nonzero"></path>
            <path d="M170.936866,142.848 L170.936866,143.281 C170.927873,144.637708 171.462788,145.941494 172.422147,146.900853 C173.381506,147.860212 174.685292,148.395127 176.042,148.386 L213.448,148.386 C214.640268,148.383903 215.792546,147.955834 216.697,147.179 C209.921,148.479 195.132,149.779 189.316,137.710997 L176.042,137.710997 C174.682094,137.709631 173.377961,138.251439 172.419372,139.216038 C171.460782,140.180636 170.927133,141.488129 170.936866,142.848 L170.936866,142.848 Z" id="Path_29328" fill="#B6C2CC" fill-rule="nonzero"></path>
            <g id="Group_1494" transform="translate(199.211432, 327.092137)" fill="#DD3B2F" fill-rule="nonzero">
                <path d="M0.49956828,20.6378634 C0.449675453,20.6344777 0.409954061,20.5947563 0.40656828,20.5448634 L0.40656828,0.0938634399 C0.409954061,0.0439706132 0.449675453,0.00424922082 0.49956828,0.000863439904 C0.52520049,-0.00288408506 0.551096231,0.00570069354 0.569413629,0.0240180914 C0.587731026,0.0423354892 0.596315805,0.06823123 0.59256828,0.0938634399 L0.59256828,20.5448634 C0.56156828,20.6068634 0.53056828,20.6378634 0.49956828,20.6378634 Z" id="Path_29329"></path>
            </g>
            <path d="M238.477513,348.348 L238.477513,358.713 L160.912,358.713 L160.912,348.348 C160.920788,345.275974 163.408974,342.787788 166.481,342.778983 L232.97,342.778983 C234.44244,342.775379 235.854711,343.362958 236.890042,344.409945 C237.925373,345.456933 238.497105,346.875693 238.477513,348.348 L238.477513,348.348 Z" id="Path_29330" fill="#9AC4F8" fill-rule="nonzero"></path>
            <path d="M238.477513,348.348 L238.477513,358.713 L160.912,358.713 L160.912,355.557 C178.486,356.98 216.263,357.97 231.361,342.778983 L232.97,342.778983 C234.44244,342.775379 235.854711,343.362958 236.890042,344.409945 C237.925373,345.456933 238.497105,346.875693 238.477513,348.348 L238.477513,348.348 Z" id="Path_29331" fill="#82BAFF" fill-rule="nonzero"></path>
            <path d="M249.337,364.066 L249.337,384.053 L150.052,384.053 L150.052,364.066 C150.061886,360.652565 152.826565,357.887886 156.24,357.878 L243.152,357.878 C246.564263,357.889532 249.327122,360.653732 249.337,364.066 L249.337,364.066 Z" id="Path_29332" fill="#9AC4F8" fill-rule="nonzero"></path>
            <path d="M249.338,364.066 L249.338,384.053 L228.206,384.053 C232.166,379.876 234.177,375.699 232.259,371.894 C224.803,357.136 160.665,357.878 160.665,357.878 L243.15,357.878 C246.563435,357.887886 249.328114,360.652565 249.338,364.066 L249.338,364.066 Z" id="Path_29333" fill="#82BAFF" fill-rule="nonzero"></path>
            <path d="M200.515,333.711 C202.363262,333.681199 204.201454,333.432123 205.991,332.969 C213.231,331.143 220.068,326.069 221.399,318.369 C223.039,308.963 215.923,302.126 209.518,296.495 C204.258,291.854 197.39,286.471 198.194,278.612 C197.851164,282.981709 196.619316,287.235329 194.574,291.112 C190.861,297.733 182.91,300.301 179.383,306.891 C176.134,312.986 177.96,321.591 182.57,326.506 C187.268621,331.329834 193.785136,333.946245 200.515,333.711 L200.515,333.711 Z" id="Path_29334" fill="#E8505B" fill-rule="nonzero"></path>
            <path d="M200.113,333.993 C201.054763,333.954886 201.98912,333.809616 202.898,333.56 C206.974141,332.407853 210.006834,328.988555 210.664,324.804 C211.499,319.173 207.91,315.058 204.664,311.686 C202.003,308.902 198.538,305.686 198.94,300.95 C198.78464,303.534775 198.166502,306.070665 197.115,308.437 C195.259,312.397 191.237,313.944 189.442,317.905 C187.802,321.556 188.73,326.723 191.051,329.662 C193.216902,332.457363 196.577434,334.063462 200.113,333.993 L200.113,333.993 Z" id="Path_29335" fill="#E8505B" fill-rule="nonzero"></path>
            <path d="M244.542006,368.769 L244.542006,379.474 L154.878752,379.474 L154.878752,368.769 C154.86647,367.577956 155.329817,366.431168 156.166219,365.583125 C157.002621,364.735083 158.142896,364.255931 159.334,364.252 L240.086,364.252 C242.55842,364.281602 244.546015,366.296406 244.542006,368.769 L244.542006,368.769 Z" id="Path_29336" fill="#263238" fill-rule="nonzero"></path>
            <path d="M244.542059,368.768 L244.542059,379.473 L231.671,379.473 C233.094,376.843 233.466,374.306 232.259,371.893 C230.619,368.644 226.226,366.169 220.409,364.282 L240.087,364.282 C241.27327,364.284111 242.409892,364.758412 243.2458,365.600136 C244.081707,366.44186 244.548115,367.581744 244.542059,368.768 Z" id="Path_29337" fill="#414D53" fill-rule="nonzero"></path>
            <path d="M219.604028,74.348 C219.600137,84.2057868 211.609787,92.1961369 201.752,92.2 C199.634512,92.1924264 197.536643,91.7937362 195.564,91.024 L195.533,91.024 C194.976,90.807 194.388,90.56 193.833,90.281 C191.075036,94.0550678 186.423803,95.95022 181.813581,95.1783303 C177.20336,94.4064406 173.423097,91.0996021 172.044867,86.6330111 C170.666637,82.16642 171.926298,77.3044419 175.3,74.069 C172.859636,71.5583839 171.494,68.195224 171.494,64.694 C171.497435,57.628972 176.868085,51.7228591 183.901,51.05 C183.677625,50.0757151 183.563587,49.0795602 183.561,48.08 C183.556657,44.5747581 184.987656,41.2205831 187.521,38.798 C183.856838,37.1579526 181.486893,33.5303427 181.457,29.516 C181.46071,26.8369656 182.528649,24.2691611 184.425825,22.3776112 C186.323001,20.4860612 188.893966,19.4257534 191.573,19.4299873 C192.385376,19.4290623 193.19512,19.5223523 193.986,19.708 C197.294422,20.4961946 199.981288,22.9014136 201.129542,26.1027285 C202.277796,29.3040434 201.732211,32.8686847 199.679,35.58 C204.142982,36.7047169 207.669316,40.1230468 208.932304,44.5498953 C210.195292,48.9767437 209.00351,53.7411603 205.805,57.052 C213.885435,58.8777728 219.618615,66.0638789 219.604028,74.348 L219.604028,74.348 Z" id="Path_29338" fill="#263238" fill-rule="nonzero"></path>
            <path d="M209.426,0 C213.13404,0 216.14,3.00596019 216.14,6.714 C216.14,10.4220398 213.13404,13.428 209.426,13.428 C205.71796,13.428 202.712,10.4220398 202.712,6.714 C202.712,3.00596019 205.71796,0 209.426,0 Z" id="Path_29363" fill="#263238" fill-rule="nonzero"></path>
            <path d="M219.605001,74.346 C219.601137,84.2037868 211.610787,92.1941369 201.753,92.198 C199.635512,92.1904264 197.537643,91.7917362 195.565,91.022 C217.594,74.903 195.565,59.092 195.565,59.092 C200.409554,56.7269987 203.254391,51.581425 202.681,46.221 C201.969,40.25 192.811,36.939 192.811,36.939 C199.494,30.999 196.06,23.139 194.018,19.639 C197.326422,20.4271946 200.013288,22.8324136 201.161542,26.0337285 C202.309796,29.2350434 201.764211,32.7996847 199.711,35.511 C204.174982,36.6357169 207.701316,40.0540468 208.964304,44.4808953 C210.227292,48.9077437 209.03551,53.6721603 205.837,56.983 C213.902905,58.8690511 219.606971,66.0625223 219.605001,74.346 L219.605001,74.346 Z" id="Path_29339" fill="#414D53" fill-rule="nonzero"></path>
            <path d="M210.416,0.093 C211.37677,1.27304671 211.901247,2.74829421 211.901,4.27 C211.902594,6.05115166 211.19574,7.75981006 209.936275,9.01927497 C208.67681,10.2787399 206.968152,10.9855939 205.187,10.984 C204.847,10.984 204.506,10.922 204.166,10.891 C206.036162,13.2366872 209.237638,14.0533097 212.002863,12.890002 C214.768088,11.7266944 216.422983,8.867036 216.053864,5.88987219 C215.684745,2.91270838 213.381593,0.543781804 210.416,0.091 L210.416,0.093 Z" id="Path_29340" fill="#414D53" fill-rule="nonzero"></path>
            <path d="M305.952,296.637 L264.189,254.737 L285.209,216.155 C306.229,189.327 350.619,190.987 350.619,190.987 C372.550129,189.480462 394.584051,190.828401 416.168,194.997 C451.432,201.911 448.668,225.282 448.668,225.282 L453.368,311.85 L458.485,382.239 L328.356,384.866 L305.956,296.638" id="Path_29013" fill="#C44C4C" fill-rule="nonzero"></path>
            <path d="M376.203,380.713 L259.626,382.096 C231.553,382.373 212.885,353.332 224.916,328.025 L274.838,235.513 L320.197,266.213 L289.22,330.513 L383.671,332.173 L376.203,380.713 Z" id="Path_29014" fill="#C44C4C" fill-rule="nonzero"></path>
            <path d="M444.517,211.036 L538.138,355.547 L483.514,359.147 C483.514,359.147 450.878,307.704 451.708,308.81 C452.953,310.742 444.517,211.036 444.517,211.036 Z" id="Path_29015" fill="#C44C4C" fill-rule="nonzero"></path>
            <g id="Group_1378" transform="translate(302.219000, 207.998000)" fill="#263238" fill-rule="nonzero">
                <path d="M15.487,66.513 C15.4990688,66.277171 15.5455608,66.0443745 15.625,65.822 C15.763,65.269 15.902,64.577 16.178,63.748 C16.593,61.948 17.284,59.323 17.837,56.004 C18.6561841,52.1691548 19.2571497,48.2909238 19.637,44.388 C20.1906279,39.6561386 20.1906279,34.8758614 19.637,30.144 C18.9119703,25.4435548 17.2672714,20.9321865 14.797,16.868 C12.7955113,13.5225859 10.4804238,10.3750848 7.883,7.468 C6.105592,5.51201733 4.21217501,3.66468351 2.213,1.936 C0.83,0.691 0,0.136 0,0 C0.237925656,0.125279614 0.468622723,0.263831398 0.691,0.415 C1.10566667,0.691666667 1.65866667,1.10666667 2.35,1.66 C4.46888406,3.25007202 6.41549226,5.05758889 8.158,7.053 C10.9156523,9.89321615 13.3292706,13.0482728 15.349,16.453 C17.806604,20.6357291 19.4927223,25.2259812 20.327,30.005 C20.907505,34.7845537 20.8611124,39.6194656 20.189,44.387 C19.636,48.812 18.944,52.687 18.253,56.003 C17.562,59.319 16.87,61.949 16.317,63.747 C16.1733146,64.4642471 15.941209,65.1608999 15.626,65.821 C15.6292524,66.0589127 15.581871,66.294797 15.487,66.513 Z" id="Path_29017"></path>
            </g>
            <g id="Group_1379" transform="translate(288.947000, 279.489000)" fill="#263238" fill-rule="nonzero">
                <path d="M25.026,0 C25.026,0 24.749,0.83 24.196,2.074 C23.643,3.457 22.813,5.255 21.707,7.606 C19.633,12.306 16.59,18.806 13.133,25.86 C9.676,32.914 6.357,39.274 4.006,43.837 C2.761,46.05 1.793,47.986 1.106,49.23 C0.419,50.474 0,51.166 0,51.166 C0,51.166 0.277,50.475 0.968,49.092 C1.659,47.709 2.627,45.911 3.734,43.699 L12.723,25.721 C16.18,18.668 19.223,12.307 21.435,7.605 C22.541,5.392 23.371,3.595 24.063,2.073 C24.3340072,1.35985739 24.6558335,0.667078703 25.026,0 Z" id="Path_29018"></path>
            </g>
            <g id="Group_1380" transform="translate(269.029000, 330.102000)" fill="#263238" fill-rule="nonzero">
                <path d="M107.173,50.613 L107.173,49.645 C107.173,48.954 107.311,48.124 107.45,46.879 C107.726,44.39 108.141,40.933 108.556,36.507 C109.524,27.518 111.045,14.934 112.705,0.137 L112.982,0.552 L78.548,0.552 C55.039,0.552 33.743,0.414 18.254,0.414 C10.648,0.414 4.287,0.276 0,0.276 L0,0.276 C4.425,0.276 10.648,0.276 18.254,0.138 C33.742,0.138 55.039,0.138 78.548,0 L113.397,0 L113.397,0.415 C111.597,15.215 110.078,27.796 108.972,36.785 C108.419,41.21 108.004,44.667 107.589,47.157 C107.451,48.263 107.312,49.231 107.174,49.923 C107.14159,50.1558402 107.095511,50.3865721 107.036,50.614 C107.173,50.475 107.173,50.613 107.173,50.613 Z" id="Path_29019"></path>
            </g>
            <g id="Group_1381" transform="translate(270.689000, 315.281579)" fill="#263238" fill-rule="nonzero">
                <path d="M19.222,16.2044207 C19.084,16.2044207 18.392,15.0984207 16.871,13.3044207 C15.0184188,10.9779472 12.9332869,8.84657583 10.648,6.94342069 C8.35737976,5.0292722 5.90520869,3.31720242 3.319,1.82642069 C1.383,0.720420686 0,0.167420686 0,0.0264206863 C0,-0.114579314 1.383,0.303420686 3.457,1.40942069 C6.19739082,2.73205108 8.75416005,4.40541385 11.063,6.38742069 C13.3971308,8.3413566 15.4866081,10.5701772 17.286,13.0254207 C18.669,14.9594207 19.36,16.2044207 19.222,16.2044207 Z" id="Path_29020"></path>
            </g>
            <g id="Group_1382" transform="translate(447.973000, 221.825000)" fill="#263238" fill-rule="nonzero">
                <path d="M7.33,118.788 C7.2240515,118.381854 7.17756768,117.962489 7.192,117.543 C7.054,116.713 6.916,115.607 6.777,114.086 C6.5,111.044 6.086,106.757 5.532,101.363 C4.564,90.715 3.458,75.78 2.49,59.463 C1.522,43.146 0.83,28.21 0.415,17.423 C0.277,12.03 0.139,7.743 0,4.7 L0,0 C0.0154434125,0.417819923 0.061567599,0.833940302 0.138,1.245 C0.138,2.075 0.276,3.319 0.276,4.702 C0.414,7.744 0.691,12.17 0.829,17.425 C1.382,28.212 2.074,43.008 3.042,59.325 C4.01,75.642 4.978,90.578 5.808,101.225 C6.223,106.48 6.5,110.905 6.776,113.948 C6.914,115.331 6.914,116.576 7.052,117.405 C7.20006607,117.853111 7.29341006,118.317481 7.33,118.788 L7.33,118.788 Z" id="Path_29021"></path>
            </g>
            <g id="Group_1383" transform="translate(335.098000, 219.447000)" fill="#E0E0E0" fill-rule="nonzero">
                <path d="M15.074,37.617 C15.074,37.617 15.074,36.926 15.212,35.681 C15.35,34.298 15.627,32.639 15.903,30.426 C16.456,25.862 17.286,19.64 18.254,12.31 L18.807,12.587 C16.041,14.523 12.999,16.597 9.818,18.81 C6.637,21.023 3.595,23.235 0.691,25.171 L0,25.586 L0.138,24.756 C1.244,17.565 2.212,11.342 2.904,6.917 C3.319,4.843 3.595,3.045 3.734,1.8 C4.011,0.555 4.011,0 4.149,0 C4.149,0 4.149,0.691 4.011,1.936 C3.873,3.181 3.596,4.978 3.32,7.191 C2.629,11.755 1.799,17.977 0.831,25.169 L0.278,24.892 C3.044,22.956 6.224,20.743 9.405,18.531 C12.586,16.319 15.628,14.244 18.394,12.308 L19.085,11.893 L18.947,12.723 C17.841,19.914 17.011,26.137 16.32,30.701 C16.043,32.914 15.767,34.573 15.49,35.956 C15.351,36.926 15.213,37.617 15.074,37.617 Z" id="Path_29022"></path>
            </g>
            <g id="Group_1386" transform="translate(386.074000, 296.626000)" fill="#E0E0E0" fill-rule="nonzero">
                <path d="M14.521,0 C14.521,0 14.245,0.553 13.553,1.659 C12.861,2.765 11.893,4.287 10.787,6.084 C8.298,9.956 4.841,15.211 0.969,21.434 L0.692,20.881 C4.011,20.328 7.745,19.636 11.478,19.081 C15.35,18.39 18.946,17.836 22.403,17.281 L23.233,17.143 L22.818,17.834 C18.808,23.919 15.212,29.034 12.718,32.907 C11.473,34.707 10.505,36.088 9.818,37.194 C9.127,38.162 8.712,38.715 8.712,38.715 C8.712,38.715 8.989,38.162 9.68,37.056 C10.371,35.95 11.339,34.428 12.446,32.631 C14.935,28.759 18.392,23.504 22.264,17.419 L22.541,17.972 C19.084,18.525 15.488,19.217 11.616,19.908 C7.882,20.599 4.148,21.153 0.83,21.708 L0,21.846 L0.415,21.155 C4.425,15.07 7.883,9.815 10.51,5.943 C11.755,4.143 12.723,2.624 13.41,1.656 C13.7123676,1.06131675 14.0853978,0.505296938 14.521,0 Z" id="Path_29025"></path>
            </g>
            <g id="Group_1387" transform="translate(455.441000, 265.383000)" fill="#E0E0E0" fill-rule="nonzero">
                <path d="M14.521,0 C14.521,0 14.244,0.553 13.553,1.659 C12.862,2.765 11.893,4.287 10.787,6.084 C8.298,9.956 4.841,15.211 0.969,21.434 L0.693,20.881 C4.012,20.328 7.746,19.636 11.479,19.081 C15.351,18.39 18.947,17.836 22.404,17.281 L23.234,17.143 L22.819,17.834 C18.809,23.919 15.213,29.034 12.719,32.907 C11.474,34.707 10.506,36.088 9.819,37.194 C9.128,38.162 8.713,38.715 8.713,38.715 C8.713,38.715 8.99,38.162 9.681,37.055 C10.372,35.948 11.34,34.428 12.447,32.63 C14.936,28.758 18.393,23.503 22.265,17.418 L22.541,17.971 C19.084,18.524 15.488,19.216 11.616,19.907 C7.882,20.598 4.148,21.152 0.83,21.707 L0,21.845 L0.415,21.154 C4.425,15.069 7.883,9.814 10.515,5.942 C11.76,4.142 12.728,2.623 13.415,1.655 C13.968,0.553 14.383,0 14.521,0 Z" id="Path_29026"></path>
            </g>
            <g id="Group_1388" transform="translate(279.123000, 243.257000)" fill="#E0E0E0" fill-rule="nonzero">
                <path d="M14.521,0 C14.521,0 14.244,0.553 13.553,1.659 C12.862,2.765 11.894,4.286 10.787,6.084 C8.298,9.956 4.841,15.211 0.969,21.434 L0.692,20.881 C4.011,20.328 7.745,19.636 11.478,19.081 C15.35,18.39 18.946,17.836 22.403,17.281 L23.233,17.143 L22.818,17.834 C18.808,23.919 15.212,29.034 12.718,32.907 C11.473,34.707 10.505,36.088 9.818,37.194 C9.127,38.162 8.712,38.715 8.712,38.715 C8.712,38.715 8.989,38.162 9.68,37.056 C10.371,35.95 11.339,34.429 12.446,32.631 C14.935,28.759 18.392,23.504 22.264,17.419 L22.541,17.972 C19.084,18.525 15.488,19.217 11.616,19.908 C7.882,20.599 4.148,21.153 0.83,21.708 L0,21.846 L0.415,21.155 C4.425,15.07 7.883,9.815 10.51,5.943 C11.755,4.143 12.723,2.624 13.41,1.656 C14.106,0.553 14.521,0 14.521,0 Z" id="Path_29027"></path>
            </g>
            <g id="Group_1389" transform="translate(239.021000, 343.788000)" fill="#E0E0E0" fill-rule="nonzero">
                <path d="M0,2.905 C0,2.905 0.415,3.32 1.245,4.288 C2.075,5.256 3.181,6.639 4.564,8.298 C7.464,11.898 11.478,16.734 16.042,22.403 L15.489,22.541 C16.042,19.222 16.457,15.488 17.01,11.755 C17.563,7.883 18.116,4.149 18.669,0.83 L18.807,0 L19.36,0.691 C23.785,6.361 27.66,11.339 30.56,14.935 C31.805,16.595 32.911,18.116 33.741,19.084 C34.432,20.052 34.847,20.605 34.847,20.605 C34.847,20.605 34.432,20.19 33.602,19.222 C32.772,18.254 31.666,16.871 30.283,15.212 C27.383,11.612 23.507,6.776 18.943,1.107 L19.496,0.969 C18.943,4.426 18.39,8.022 17.837,11.894 C17.284,15.628 16.731,19.362 16.177,22.68 L16.039,23.51 L15.486,22.957 C10.922,17.287 7.05,12.309 4.146,8.713 C2.763,7.054 1.795,5.532 0.965,4.564 C0.277,3.462 0,2.905 0,2.905 Z" id="Path_29028"></path>
            </g>
            <g id="Group_1391" transform="translate(333.195000, 346.282000)" fill="#E0E0E0" fill-rule="nonzero">
                <path d="M0,3.181 C0.47717371,3.58198556 0.896196079,4.04745378 1.245,4.564 C2.075,5.532 3.319,6.915 4.702,8.574 C7.744,12.031 11.755,16.874 16.456,22.541 L15.903,22.679 C16.318,19.36 16.733,15.626 17.286,11.893 C17.839,8.021 18.254,4.287 18.669,0.83 L18.807,0 L19.36,0.553 C23.924,6.223 27.934,11.063 30.838,14.658 C32.2206667,16.3173333 33.327,17.7003333 34.157,18.807 C34.848,19.775 35.263,20.328 35.263,20.328 C35.263,20.328 34.848,19.913 34.018,18.945 C33.188,17.977 32.082,16.594 30.561,14.935 C27.661,11.478 23.647,6.635 18.945,1.106 L19.498,0.968 C19.083,4.425 18.53,8.159 18.115,12.031 C17.562,15.765 17.147,19.499 16.732,22.817 L16.594,23.647 L16.041,23.094 C11.341,17.424 7.329,12.584 4.425,8.989 C3.04233333,7.32966667 1.936,5.94666667 1.106,4.84 C0.415,3.734 0,3.181 0,3.181 Z" id="Path_29030"></path>
            </g>
            <g id="Group_1392" transform="translate(243.861000, 298.296000)" fill="#E0E0E0" fill-rule="nonzero">
                <path d="M34.572,0 C34.572,0 33.881,0.138 32.636,0.277 C31.253,0.415 29.594,0.554 27.381,0.692 C22.817,0.969 16.456,1.522 9.265,2.075 L9.542,1.522 C12.031,3.873 14.659,6.362 17.563,8.99 C20.329,11.618 23.095,14.245 25.584,16.596 L26.137,17.149 L25.307,17.149 C18.116,17.564 11.755,17.84 7.191,18.117 C4.978,18.255 3.319,18.255 1.936,18.394 L0,18.394 C0,18.394 0.691,18.256 1.936,18.117 C3.319,17.979 4.978,17.84 7.191,17.702 C11.754,17.425 17.977,17.011 25.307,16.457 L25.03,17.01 C22.541,14.659 19.775,12.032 17.009,9.404 C14.243,6.776 11.478,4.287 9.127,1.936 L8.574,1.383 L9.404,1.383 C16.733,0.968 22.956,0.553 27.52,0.277 C29.733,0.139 31.392,0.139 32.775,0 L34.572,0 Z" id="Path_29031"></path>
            </g>
            <g id="Group_1393" transform="translate(290.879000, 347.803000)" fill="#E0E0E0" fill-rule="nonzero">
                <path d="M34.572,0 C34.572,0 33.881,0.138 32.636,0.277 C31.253,0.415 29.594,0.554 27.381,0.692 C22.818,0.969 16.456,1.522 9.265,2.075 L9.541,1.522 C12.03,3.873 14.658,6.362 17.562,8.99 C20.328,11.618 23.094,14.245 25.583,16.596 L26.136,17.149 L25.306,17.149 C18.115,17.564 11.754,17.84 7.19,18.117 C4.978,18.255 3.318,18.255 1.935,18.394 L0,18.394 C0,18.394 0.691,18.256 1.936,18.117 C3.319,17.979 4.978,17.84 7.191,17.702 C11.755,17.425 17.978,17.011 25.307,16.457 L25.03,17.01 C22.541,14.659 19.775,12.032 17.009,9.404 C14.243,6.776 11.478,4.287 9.126,1.936 L8.573,1.383 L9.403,1.383 C16.732,0.968 22.955,0.553 27.519,0.277 C29.732,0.139 31.391,0.139 32.774,0 L34.572,0 Z" id="Path_29032"></path>
            </g>
            <g id="Group_1394" transform="translate(402.084000, 226.823000)" fill="#E0E0E0" fill-rule="nonzero">
                <path d="M34.572,0 C34.572,0 33.881,0.138 32.636,0.277 C31.253,0.415 29.594,0.554 27.381,0.692 C22.818,0.969 16.456,1.522 9.265,2.075 L9.542,1.522 C12.031,3.873 14.659,6.362 17.563,8.99 C20.329,11.617 23.095,14.245 25.584,16.596 L26.137,17.149 L25.307,17.149 C18.116,17.564 11.755,17.84 7.191,18.117 C4.978,18.255 3.319,18.255 1.936,18.394 L0,18.394 C0,18.394 0.691,18.256 1.936,18.117 C3.319,17.979 4.978,17.84 7.191,17.702 C11.754,17.425 17.977,17.011 25.307,16.457 L25.03,17.01 C22.541,14.659 19.775,12.032 17.009,9.404 C14.243,6.776 11.477,4.287 9.126,1.936 L8.573,1.383 L9.403,1.383 C16.732,0.968 22.955,0.553 27.519,0.277 C29.732,0.139 31.391,0.139 32.774,0 L34.572,0 Z" id="Path_29033"></path>
            </g>
            <g id="Group_1399" transform="translate(377.032000, 339.021584)" fill-rule="nonzero">
                <path d="M3.042,8.78141585 C3.042,8.78141585 26.274,2.14341585 34.019,0.0694158473 C37.061,-0.760584153 49.919,6.01541585 58.773,11.6854158 C58.773,11.6854158 70.942,18.8764158 69.973,21.2274158 C68.867,23.7164158 64.441,23.1634158 57.25,19.8444158 C57.25,19.8444158 59.739,27.1734158 54.899,27.0354158 C54.899,27.0354158 57.388,34.9174158 52.686,35.7474158 C48.123,36.5774158 47.016,26.4824158 42.868,25.9284158 C38.858,25.3754158 30.422,24.8224158 30.422,24.8224158 C30.422,24.8224158 23.369,36.4384158 17.976,37.2684158 C12.583,38.0984158 0,36.5774158 0,36.5774158 L3.042,8.78141585 Z" id="Path_29034" fill="#FFBE9D"></path>
                <g id="Group_1396" transform="translate(42.488000, 10.078236)" fill="#EB996E">
                    <ellipse id="Ellipse_370" transform="translate(6.539123, 4.331534) rotate(-57.788103) translate(-6.539123, -4.331534) " cx="6.539123" cy="4.331534" rx="1" ry="7.46727183"></ellipse>
                </g>
                <g id="Group_1397" transform="translate(41.317000, 14.503776)" fill="#EB996E">
                    <ellipse id="Ellipse_371" transform="translate(7.707561, 3.853263) rotate(-65.228861) translate(-7.707561, -3.853263) " cx="7.707561" cy="3.853263" rx="1" ry="8.29710371"></ellipse>
                </g>
                <g id="Group_1398" transform="translate(43.806000, 25.373105)" fill="#EB996E">
                    <ellipse id="Ellipse_372" transform="translate(5.262675, 1.124795) rotate(-82.195000) translate(-5.262675, -1.124795) " cx="5.26267549" cy="1.12479511" rx="1" ry="5.255"></ellipse>
                </g>
            </g>
            <g id="Group_1430" transform="translate(330.561828, 40.862573)" fill-rule="nonzero">
                <g id="Group_1424">
                    <path d="M19.2281721,67.0104266 C19.7256116,68.8664292 19.1376453,70.8444854 17.7071721,72.1274266 C16.2194259,73.3357823 14.1588611,73.552622 12.4521721,72.6804266 C9.27117209,71.0214266 8.85217209,66.7344266 9.55217209,63.2804266 C10.1051721,59.8234266 11.3521721,56.0894266 9.82817209,52.9084266 C8.72217209,50.4194266 6.22817209,48.8984266 4.43517209,46.9624266 C1.06887277,43.5275454 -0.514544557,38.7259533 0.148172094,33.9624266 C0.945645796,29.1905999 4.37244291,25.2797919 8.99817209,23.8624266 C13.5621721,22.6174266 19.3701721,24.0004266 22.8271721,20.6814266 C25.3161721,18.1924266 25.4551721,14.3204266 27.3911721,11.4164266 C30.4331721,6.8524266 36.7911721,6.1614266 42.0501721,6.9914266 C47.4431721,7.6824266 52.8361721,9.4804266 58.0911721,8.0974266 C62.5161721,6.9914266 66.1121721,3.9484266 70.1221721,2.0124266 C79.3747117,-1.99322329 90.137424,0.0937897395 97.2221721,7.2674266 C103.998172,14.3204266 105.522172,25.7984266 101.094172,34.5104266 C99.5512678,37.7126443 96.9673898,40.2965223 93.7651721,41.8394266" id="Path_29035" fill="#263238"></path>
                    <g id="Group_1413" transform="translate(17.706172, 27.949273)">
                        <g id="Group_1400" fill="#FFBE9D">
                            <path d="M28.211,153.286527 L28.211,153.286527 C35.3314745,153.266402 42.1505787,150.410156 47.1595684,145.349369 C52.1685581,140.288582 54.954501,133.440455 54.901,126.320154 L54.486,100.875154 C54.486,100.875154 75.786,98.8011537 77.304,77.6431537 C78.687,56.4851537 77.719,7.66915369 77.719,7.66915369 L77.719,7.66915369 C53.7995505,-4.19315966 25.3335808,-2.18255924 3.319,12.9241537 L0,15.1371537 L1.659,127.012154 C1.69550343,134.01743 4.51353363,140.721246 9.49307849,145.648655 C14.4726234,150.576064 21.2057277,153.323382 28.211,153.286527 Z" id="Path_29036"></path>
                        </g>
                        <g id="Group_1404" transform="translate(65.523172, 35.715473)" fill="#263238">
                            <g id="Group_1401" transform="translate(3.724328, 3.759680)">
                                <path d="M2.8005,6.361 C-0.9335,5.67 -0.9335,0.829 2.8005,0 L3.3535,0 C7.0875,0.691 7.0875,5.532 3.3535,6.361 L2.8005,6.361 Z" id="Path_29037"></path>
                            </g>
                            <g id="Group_1402">
                                <path d="M10.6738282,3.3446803 C10.2588282,3.7596803 8.32282821,1.9616803 5.41882821,1.8236803 C2.51882821,1.5466803 0.30182821,3.0686803 0.0258282098,2.6536803 C-0.11217179,2.5156803 0.30282821,1.8236803 1.27082821,1.1326803 C2.52958963,0.28080994 4.04405557,-0.109906021 5.55782821,0.026680295 C7.07459096,0.156650047 8.51861114,0.734049292 9.70682821,1.6856803 C10.5358282,2.5196803 10.8128282,3.2066803 10.6738282,3.3446803 Z" id="Path_29038"></path>
                            </g>
                        </g>
                        <g id="Group_1408" transform="translate(33.716172, 36.545473)" fill="#263238">
                            <g id="Group_1405" transform="translate(2.705828, 1.664361)">
                                <circle id="Ellipse_373" transform="translate(4.232845, 4.232845) rotate(-55.290000) translate(-4.232845, -4.232845) " cx="4.23284467" cy="4.23284467" r="3.042"></circle>
                            </g>
                            <g id="Group_1406">
                                <path d="M10.6738282,3.3446803 C10.2588282,3.7596803 8.32282821,1.9616803 5.41882821,1.8236803 C2.51882821,1.5466803 0.30182821,3.0686803 0.0258282098,2.6536803 C-0.11217179,2.5156803 0.30282821,1.8236803 1.27082821,1.1326803 C2.52958963,0.28080994 4.04405557,-0.109906021 5.55782821,0.026680295 C7.07459096,0.156650047 8.51861114,0.734049292 9.70682821,1.6856803 C10.5358282,2.5196803 10.8128282,3.2066803 10.6738282,3.3446803 Z" id="Path_29039"></path>
                            </g>
                        </g>
                        <g id="Group_1409" transform="translate(54.423799, 39.200209)" fill="#263238">
                            <path d="M0.338201427,25.4439447 C0.338201427,25.1669447 2.13820143,24.8909447 5.03820143,24.7529447 C5.86820143,24.7529447 6.42120143,24.6149447 6.55920143,24.1999447 C6.57935604,23.441196 6.43789267,22.6868384 6.14420143,21.9869447 C5.45320143,20.0509447 4.89920143,17.9769447 4.20820143,15.9019447 C1.44220143,7.32794469 -0.354798573,0.136944689 0.0592014271,0.00194468931 C0.473201427,-0.133055311 3.10120143,6.77794469 5.72920143,15.3519447 C6.42020143,17.4259447 6.97420143,19.5009447 7.52920143,21.4369447 C7.98205867,22.4345696 8.07946656,23.5572309 7.80520143,24.6179447 C7.56405108,25.1991449 7.04219943,25.6164753 6.42220143,25.7239447 C6.01508416,25.8245411 5.59646645,25.8709421 5.17720143,25.8619447 C2.13620143,25.8579447 0.338201427,25.7199447 0.338201427,25.4439447 Z" id="Path_29040"></path>
                        </g>
                        <g id="Group_1411" transform="translate(44.840846, 67.410154)" fill="#FFFFFF">
                            <path d="M0.241154035,0 C4.68660378,2.31144643 9.43463584,3.98714325 14.346154,4.978 C14.346154,4.978 10.612154,10.233 4.66615404,7.605 C-1.55684596,4.84 0.241154035,0 0.241154035,0 Z" id="Path_29041"></path>
                        </g>
                        <g id="Group_1412" transform="translate(27.243000, 91.057154)" fill="#EB996E">
                            <path d="M27.243,9.4 C27.243,9.4 13.829,9.815 0,0 C0,0 5.67,15.627 26.966,14.8 L27.243,9.4 Z" id="Path_29042"></path>
                        </g>
                    </g>
                    <path d="M95.4251721,40.8744266 C95.4251721,40.8744266 82.7031721,47.3744266 65.6931721,39.3534266 C54.6301721,34.0984266 41.6311721,31.6094266 38.8651721,33.9604266 C36.0991721,36.1734266 35.6841721,47.6514266 24.8981721,51.1084266 C24.8981721,51.1084266 26.0041721,72.8194266 17.4301721,72.1284266 C8.71817209,71.5754266 13.5581721,37.8284266 13.5581721,37.8284266 L34.4401721,27.0424266 L57.3961721,22.2024266 L79.2461721,24.8294266 L96.1171721,29.1164266 L95.4251721,40.8744266 Z" id="Path_29043" fill="#263238"></path>
                    <g id="Group_1419" transform="translate(4.427287, 64.139661)">
                        <g id="Group_1416" fill="#FFBE9D">
                            <path d="M14.6618853,0.933765908 C14.2468853,0.795765908 0.27988532,-4.18323409 0.00388531993,10.3337659 C-0.27211468,24.8507659 14.2478853,22.2267659 14.3858853,21.8117659 C14.3858853,21.4007659 14.6618853,0.933765908 14.6618853,0.933765908 Z" id="Path_29044"></path>
                        </g>
                        <g id="Group_1417" transform="translate(3.737885, 4.519316)" fill="#EB996E">
                            <path d="M6.222,11.6264496 C5.98407434,11.7517292 5.75337728,11.890281 5.531,12.0414496 C4.90321364,12.2542748 4.22278636,12.2542748 3.595,12.0414496 C2.074,11.4884496 0.829,8.99944956 0.829,6.37144956 C0.791330532,5.12002573 1.07721285,3.88005422 1.659,2.77144956 C1.90750125,1.82393024 2.64748068,1.08395081 3.595,0.835449559 C4.1992285,0.702130511 4.81892979,0.983664758 5.116,1.52644956 C5.1954254,1.74882786 5.24191691,1.98162229 5.254,2.21744956 C5.4465517,1.98497579 5.54533916,1.68897004 5.531,1.38744956 C5.45663501,1.01330744 5.26252676,0.673530252 4.978,0.419449559 C4.58195992,0.119198047 4.09091936,-0.0281496268 3.595,0.00444955918 C2.37250279,0.188643278 1.35713683,1.04399344 0.968,2.21744956 C0.34025054,3.46152206 0.00893952091,4.83399849 0,6.22744956 C0,9.12744956 1.521,11.8974496 3.6,12.5884496 C4.38937497,12.8117524 5.23514086,12.7121024 5.951,12.3114496 C6.222,12.0414496 6.36,11.6264496 6.222,11.6264496 Z" id="Path_29045"></path>
                        </g>
                    </g>
                    <g id="Group_1420" transform="translate(11.614689, 19.344899)" fill="#263238">
                        <path d="M0.00548296535,0.368528019 C-0.132517035,0.230528019 2.35648297,-0.461471981 4.98348297,0.506528019 C7.74948297,1.47452802 9.13248297,3.54852802 8.85548297,3.68752802 C8.71748297,3.82552802 7.19648297,2.16652802 4.70648297,1.19852802 C3.19008622,0.687235294 1.60528492,0.407425662 0.00548296535,0.368528019 Z" id="Path_29046"></path>
                    </g>
                    <g id="Group_1421" transform="translate(19.804122, 11.003427)" fill="#263238">
                        <path d="M0.530049805,0 C0.806049805,0 0.392049805,3.042 0.945049805,6.638 C1.4980498,10.234 3.1580498,12.861 3.0190498,12.999 C2.54837823,12.4900559 2.13119185,11.9341425 1.7740498,11.34 C1.03981461,9.90406503 0.527013685,8.36532512 0.253049805,6.776 C-0.16074988,4.52491506 -0.0661088905,2.20979827 0.530049805,0 L0.530049805,0 Z" id="Path_29047"></path>
                    </g>
                    <g id="Group_1422" transform="translate(79.914696, 58.158453)" fill="#263238">
                        <path d="M0.0174756763,1.93797311 C-0.120524324,1.79997311 0.570475676,1.24697311 1.67647568,0.831973113 C3.23115149,0.283162203 4.86777619,0.00250135555 6.51647568,0.00197311295 C8.18079755,-0.0288328925 9.83202703,0.301413004 11.3564757,0.969973113 C12.4624757,1.52297311 13.1564757,1.93797311 13.0154757,2.21497311 C12.8774757,2.62997311 10.1154757,1.52397311 6.51547568,1.52397311 C3.06447568,1.24697311 0.160475676,2.35297311 0.0174756763,1.93797311 Z" id="Path_29048"></path>
                    </g>
                    <g id="Group_1423" transform="translate(47.554697, 55.115457)" fill="#263238">
                        <path d="M0.0174750614,1.93796923 C-0.120524939,1.79996923 0.570475061,1.24696923 1.67747506,0.831969227 C3.23214597,0.283139484 4.86877392,0.00247807975 6.51747506,0.00196922701 C8.18179408,-0.0288050318 9.83301683,0.301439518 11.3574751,0.969969227 C12.4634751,1.52296923 13.1574751,1.93796923 13.0164751,2.21496923 C12.8784751,2.62996923 10.1164751,1.52396923 6.51647506,1.52396923 C3.06447506,1.24696923 0.298475061,2.35296923 0.0174750614,1.93796923 Z" id="Path_29049"></path>
                    </g>
                </g>
                <g id="Group_1429" transform="translate(17.019172, 61.207427)" fill="#263238">
                    <g id="Group_1425" transform="translate(59.981511, 0.830000)">
                        <path d="M0.446488751,0.41 L0.446488751,1.24 C0.43462305,2.02599373 0.480748182,2.81179217 0.584488751,3.591 C0.5687778,4.79257182 0.614838566,5.99415702 0.722488751,7.191 C0.699984743,8.7845394 0.933282559,10.3713697 1.41348875,11.891 C2.03442798,13.7203149 3.07641714,15.3781807 4.45548875,16.731 C6.05714697,18.2387419 8.00394169,19.3309383 10.1254888,19.912 C11.2997941,20.2157278 12.5185412,20.3095036 13.7254888,20.189 C14.9735335,20.1945034 16.2058386,19.9103886 17.3254888,19.359 C19.7851671,18.4423188 21.8747001,16.7414544 23.2714888,14.519 C24.6269305,12.4231031 25.3029886,9.96017036 25.2074888,7.466 L25.2074888,0.275 L25.4844888,0.552 C18.2934888,0.552 12.0704888,0.414 7.50748875,0.414 C5.29448875,0.414 3.63548875,0.414 2.25248875,0.276 L0.869488751,0.276 C0.7500202,0.36624302 0.604208504,0.4147298 0.454488751,0.414 C0.454488751,0.414 1.00748875,0.414 2.25448875,0.276 C3.49948875,0.276 5.29648875,0.276 7.37148875,0.138 C11.9344888,0.138 18.1574888,0 25.4874888,0 L25.7644888,0 L25.7644888,7.468 C25.8976093,10.1159694 25.1700094,12.7358905 23.6904888,14.936 C22.1490496,17.2572581 19.9270937,19.0446733 17.3294888,20.053 C16.074362,20.4751993 14.7753897,20.7536463 13.4574888,20.883 C12.1974499,21.0196075 10.9227838,20.87794 9.72348875,20.468 C7.47443252,19.9283674 5.41730055,18.7800961 3.77748875,17.149 C2.36751776,15.6872501 1.28336364,13.943265 0.596488751,12.032 C0.0943064563,10.4710235 -0.0936451143,8.82602237 0.0434887507,7.192 C0.0150452399,5.94569548 0.0611274255,4.69880504 0.181488751,3.458 C0.149849926,2.67170004 0.196075019,1.88419862 0.319488751,1.107 C0.446488751,0.548 0.446488751,0.272 0.446488751,0.41 Z" id="Path_29050"></path>
                    </g>
                    <g id="Group_1426" transform="translate(26.100524, 0.000000)">
                        <path d="M0.447475521,0.41 L0.447475521,1.24 C0.435660645,2.02599262 0.481785558,2.81178733 0.585475521,3.591 C0.56973635,4.79257218 0.615797172,5.99415883 0.723475521,7.191 C0.700971513,8.7845394 0.93426933,10.3713697 1.41447552,11.891 C2.03538082,13.7203311 3.07737465,15.3782042 4.45647552,16.731 C6.05815799,18.2387088 8.00494402,19.3309004 10.1264755,19.912 C11.3007774,20.2157486 12.5195282,20.3095247 13.7264755,20.189 C14.9745243,20.1945398 16.2068376,19.9104231 17.3264755,19.359 C19.7861539,18.4423188 21.8756869,16.7414544 23.2724755,14.519 C24.6280374,12.4231569 25.3041061,9.96018544 25.2084755,7.466 L25.2084755,0.275 L25.4854755,0.552 C18.2944755,0.552 12.0714755,0.414 7.50847552,0.414 C5.29547552,0.414 3.63647552,0.414 2.25347552,0.276 L0.870475521,0.276 C0.593475521,0.553 0.455475521,0.414 0.455475521,0.414 C0.455475521,0.414 1.00847552,0.414 2.25547552,0.276 C3.50047552,0.276 5.29747552,0.276 7.37247552,0.138 C11.9364755,0.138 18.1584755,0 25.4884755,0 L25.7654755,0 L25.7654755,7.468 C25.8984515,10.1159534 25.170864,12.7358297 23.6914755,14.936 C22.1500363,17.2572581 19.9280805,19.0446733 17.3304755,20.053 C16.0753488,20.4751993 14.7763765,20.7536463 13.4584755,20.883 C12.1984367,21.0196075 10.9237706,20.87794 9.72447552,20.468 C7.47506171,19.9285375 5.41756375,18.780255 3.77747552,17.149 C2.36752856,15.6872314 1.28337783,13.9432517 0.596475521,12.032 C0.0943191873,10.4710179 -0.0936317889,8.82602197 0.0434755208,7.192 C0.0150987393,5.94569595 0.0611807777,4.69880949 0.181475521,3.458 C0.149836696,2.67170004 0.196061789,1.88419862 0.319475521,1.107 C0.396140969,0.882213679 0.439270717,0.647358721 0.447475521,0.41 Z" id="Path_29051"></path>
                    </g>
                    <g id="Group_1427" transform="translate(51.163000, 1.793000)">
                        <ellipse id="Ellipse_374" cx="4.84" cy="0.415" rx="4.84" ry="1"></ellipse>
                    </g>
                    <g id="Group_1428" transform="translate(0.000000, 1.889365)">
                        <ellipse id="Ellipse_375" transform="translate(13.277199, 0.455316) rotate(-0.174000) translate(-13.277199, -0.455316) " cx="13.2771991" cy="0.455315549" rx="13.276" ry="1"></ellipse>
                    </g>
                </g>
            </g>
            <polygon id="Path_29057" fill="#263238" fill-rule="nonzero" points="496.098 266.288 450.325 379.823 367.49 379.823 367.49 384.94 614.058 384.94 664.39 266.288"></polygon>
            <ellipse id="Ellipse_377" fill="#C7D3DE" fill-rule="nonzero" transform="translate(558.454720, 331.137960) rotate(-73.739795) translate(-558.454720, -331.137960) " cx="558.45472" cy="331.13796" rx="10.786" ry="8.159"></ellipse>
            <text id="-=-" font-family="STIXGeneral-Regular, STIXGeneral" font-size="20" font-weight="normal" fill="#FFFEFE">
                <tspan x="348.001" y="282"> </tspan>
                <tspan x="384.221" y="282" font-family="ArialMT, Arial">= </tspan>
                <tspan x="401.457328" y="282"></tspan>
            </text>
        </g>
    </g>
</svg>