<?xml version="1.0" encoding="UTF-8"?>
<svg width="260px" height="74px" viewBox="0 0 260 74" version="1.1" xmlns="http://www.w3.org/2000/svg" xmlns:xlink="http://www.w3.org/1999/xlink">
    <title>logo</title>
    <defs>
        <linearGradient x1="-0.0250000838%" y1="32.4%" x2="100.025%" y2="33.6%" id="linearGradient-1">
            <stop stop-color="#F191A3" offset="0%"></stop>
            <stop stop-color="#FF1249" offset="100%"></stop>
        </linearGradient>
        <linearGradient x1="0%" y1="28.996766%" x2="100%" y2="30.2969662%" id="linearGradient-2">
            <stop stop-color="#4EFFFF" offset="0%"></stop>
            <stop stop-color="#FF3158" offset="100%"></stop>
        </linearGradient>
    </defs>
    <g id="Page-1" stroke="none" stroke-width="1" fill="none" fill-rule="evenodd">
        <g id="logo_original" transform="translate(182.340155, 0.095971)">
            <path d="M28.4726826,10.4471021 L26.0713772,10.4473565 C25.9929101,10.4473649 25.9293067,10.3837699 25.929315,10.3053132 L25.929569,7.90832741 C25.9435017,7.64738659 25.8122064,7.40010703 25.5882441,7.2654814 C25.3642819,7.13085578 25.084254,7.13088546 24.8602632,7.26555855 C24.6362725,7.40023164 24.5049247,7.64753904 24.5188021,7.90847691 L24.5185476,10.3094643 C24.5185393,10.387921 24.4549224,10.4515295 24.3764553,10.4515378 L21.9751499,10.4517923 C21.6001592,10.4718092 21.3062748,10.7816825 21.3062748,11.1571532 C21.3062748,11.5326239 21.6000139,11.8424349 21.9750004,11.8623724 L24.3763058,11.8621179 C24.4547729,11.8621096 24.5183763,11.9257046 24.518368,12.0041613 L24.5181135,14.4051487 C24.5041809,14.6660895 24.6354762,14.9133691 24.8594384,15.0479947 C25.0834007,15.1826203 25.3634285,15.1825907 25.5874193,15.0479176 C25.8114101,14.9132445 25.9427579,14.6659371 25.9288805,14.4049992 L25.929135,12.0040118 C25.9280578,11.9656472 25.9425518,11.9284759 25.9693175,11.9009601 C25.9960831,11.8734443 26.0328427,11.8579255 26.0712277,11.8579367 L28.4725331,11.8576822 C28.8475238,11.8376652 29.1414082,11.527792 29.1414082,11.1523213 C29.1414082,10.7768505 28.8476691,10.4670396 28.4726826,10.4471021 Z" id="add" fill="#222222" fill-rule="nonzero" transform="translate(25.223841, 11.156738) rotate(28.998977) translate(-25.223841, -11.156738) "></path>
            <path d="M21.6660282,1.36530753 L16.6372625,1.36481268 C16.2053101,1.36477018 15.8552204,1.71484842 15.8552204,2.14673433 C15.8552204,2.57862024 16.205464,2.9287674 16.6374165,2.9288099 L21.6661821,2.92930476 C22.0981346,2.92934726 22.4482242,2.57926902 22.4482242,2.14738311 C22.4482242,1.7154972 22.0979806,1.36535004 21.6660282,1.36530753 Z" id="minus" fill="#222222" fill-rule="nonzero" transform="translate(19.151722, 2.147059) rotate(-25.975715) translate(-19.151722, -2.147059) "></path>
            <g id="Ellipse_359" transform="translate(9.461370, 9.452781)">
                <ellipse id="Oval" cx="2.81650048" cy="2.81579662" rx="2.81650048" ry="2.81579662"></ellipse>
                <ellipse id="Oval" stroke="#222222" stroke-width="0.8" cx="2.81650048" cy="2.81579662" rx="2.0163583" ry="2.0158544"></ellipse>
            </g>
            <path d="M10.7776043,36.9007985 C14.4284186,35.2098478 18.7167339,35.6876639 21.9055817,38.1407089 C29.7569768,40.3145519 31.3172541,39.260628 31.3172541,39.260628 C31.3172541,39.260628 35.1639376,60.3551044 20.8193887,61.5190203 C6.4748397,62.6829362 10.7776043,36.9007985 10.7776043,36.9007985 Z" id="Path_28989" fill="url(#linearGradient-1)" fill-rule="nonzero"></path>
            <path d="M30.7811588,38.4066897 C27.933868,35.1539589 23.0017023,34.7896613 19.707191,37.5887488 C17.7414797,39.2906188 15.1241163,39.9040491 12.6820171,39.3570985 C11.8594325,39.1728664 11.0567329,38.8569799 10.3055204,38.4066897 C10.3055204,38.4066897 8.13088062,42.952518 5.69890707,47.9679938 C3.6625802,52.1675247 1.25345506,56.6449202 1.63998057,59.5531623 C3.44030048,64.2028265 14.1181979,60.9230633 20.1892767,61.4070284 C26.8004515,61.9349903 36.7442184,64.9067756 39.2866702,59.5531623 C38.7825806,53.2796154 30.8911784,38.54068 30.7811588,38.4066897 Z" id="Path_28990" fill="url(#linearGradient-2)" fill-rule="nonzero"></path>
            <path d="M40.2848476,58.0152734 L27.1625158,29.1013618 C26.9982763,28.6791939 26.9069615,28.232201 26.8924678,27.7794573 L26.8924678,25.1156497 C26.9303174,24.7118838 27.1696023,24.3545506 27.5285809,24.1657183 C28.7177716,23.5095687 29.3108208,22.1309955 28.9693057,20.8166798 C28.6277907,19.5023641 27.4385916,18.5866633 26.0803235,18.5920966 L15.0783685,18.5920966 C13.7736622,18.5897057 12.6194604,19.4370411 12.2311871,20.6823253 C11.8429138,21.9276095 12.3110839,23.2805396 13.3860678,24.0197289 C13.7263887,24.250387 13.9463355,24.6205383 13.9861744,25.0296559 L13.9861744,28.1074336 C13.9709329,28.5588371 13.8726068,29.0035669 13.6961229,29.4193389 L0.391758763,58.0292724 C-0.147173321,59.0323023 -0.129013974,60.2426229 0.439767294,61.2290412 C1.09255495,62.161945 2.18118778,62.6913769 3.31827879,62.6289401 L37.2443073,62.6289401 C38.3924808,62.7347374 39.5057926,62.2005699 40.1415182,61.2388571 C40.7772438,60.2771442 40.832321,59.0437965 40.2848476,58.0292724 L40.2848476,58.0152734 Z M38.3885106,59.3271786 C38.3885106,59.3271786 39.11664,60.4350986 37.9544335,60.4890947 C37.9544335,60.595087 11.7297735,60.5930872 2.77418211,60.4890947 C1.66598519,60.4890947 2.19407903,59.4211718 2.19407903,59.4211718 C2.19407903,59.3891741 9.59539421,43.1363481 9.75542264,42.7923729 L15.756489,29.8753059 C15.9191539,29.4569722 16.003242,29.0122304 16.0045331,28.5634007 L16.0045331,23.2757826 C16.0045331,22.8418139 15.7944958,22.4898394 15.5364499,22.4898394 L15.0723674,22.4898394 C14.5824723,22.46696 14.1970488,22.0632124 14.1970488,21.5729056 C14.1970488,21.0825988 14.5824723,20.6788512 15.0723674,20.6559718 L26.0743224,20.6559718 C26.5642176,20.6788512 26.9496411,21.0825988 26.9496411,21.5729056 C26.9496411,22.0632124 26.5642176,22.46696 26.0743224,22.4898394 L25.458213,22.4898394 C25.0746422,22.5427574 24.8026136,22.8909024 24.8441038,23.2757826 L24.8441038,28.2034267 C24.8515576,28.6549003 24.9354245,29.1018528 25.0921479,29.5253312 L30.7491531,42.7843735 C30.9051809,43.1323484 38.4825273,59.3591763 38.3885106,59.3271786 Z" id="Path_28991" fill="#030104" fill-rule="nonzero"></path>
            <g id="Group_1040" transform="translate(10.870823, 39.902069)" fill="#222222" fill-rule="nonzero">
                <path d="M17.3018727,13.1475634 L9.55049527,0.464479505 C9.37381143,0.175931599 9.05975405,-4.61836767e-17 8.72134793,-4.61836767e-17 C8.38294181,-4.61836767e-17 8.06888443,0.175931599 7.89220059,0.464479505 L0.14082321,13.1475634 C-0.109372847,13.5602853 -0.0187573261,14.0940341 0.353640158,14.4011099 C0.726037641,14.7081858 1.26740812,14.6955675 1.62508696,14.371475 C5.6636532,10.7429847 11.7890444,10.7429847 15.8276107,14.371475 C16.1837462,14.7012 16.7288168,14.7170505 17.1035202,14.4085781 C17.4782236,14.1001056 17.5672328,13.5622525 17.3118744,13.1495633 L17.3018727,13.1475634 Z" id="Path_28966"></path>
            </g>
        </g>
        <text id="Lev1y" font-family="Helvetica-Bold, Helvetica" font-size="52" font-weight="bold" fill="#000000">
            <tspan x="0" y="62">Lev1y</tspan>
        </text>
        <text id="L" font-family="Helvetica-Bold, Helvetica" font-size="52" font-weight="bold" fill="#000000">
            <tspan x="149" y="62">L</tspan>
        </text>
        <text id="B" font-family="Helvetica-Bold, Helvetica" font-size="52" font-weight="bold" fill="#000000">
            <tspan x="222" y="62">B</tspan>
        </text>
    </g>
</svg>